<svg width="813" height="110" viewBox="0 0 813 110" fill="none" xmlns="http://www.w3.org/2000/svg">
<path d="M102.551 9.715C103.496 9.715 103.901 10.39 103.901 11.47C103.901 14.98 99.0412 22.54 91.8862 22.54C87.9712 22.54 80.2762 21.73 71.6362 20.92C58.0012 40.495 23.4412 97.87 23.4412 107.86C23.4412 108.805 22.3612 109.21 20.8762 109.21C17.0962 109.21 10.2112 106.24 10.2112 101.515C10.2112 92.335 40.9912 42.655 56.1112 19.435C47.8762 18.76 40.1812 18.085 35.3212 18.085C19.6612 18.085 9.13116 24.295 9.13116 31.18C9.13116 36.31 12.6412 39.28 15.6112 42.25C15.7462 42.52 15.8812 42.655 15.8812 42.79C15.8812 43.33 15.2062 43.6 13.9912 43.6C9.94116 43.6 0.62616 40.09 0.62616 29.425C0.62616 18.22 12.3712 6.88 37.6162 6.88C46.3912 6.88 55.5712 7.15 64.3462 7.555C64.8862 7.15 65.6962 6.88 66.5062 6.88C67.7212 6.88 69.3412 7.285 70.8262 7.96C85.8112 8.77 98.3662 9.715 102.551 9.715ZM45.4145 61.015C45.2795 61.15 45.0095 61.285 44.7395 61.285C43.5245 61.285 41.7695 59.8 41.7695 58.72C41.7695 59.935 61.8845 28.885 82.9445 28.885C96.5795 28.885 102.385 37.795 102.385 47.245C102.385 64.39 77.1395 96.115 59.9945 96.115C51.2195 96.115 45.5495 89.635 45.5495 83.425C45.5495 67.765 71.0645 49.81 84.0245 49.81C85.3745 49.81 86.4545 49.945 87.3995 50.35C88.0745 48.19 88.3445 46.165 88.3445 44.275C88.3445 39.55 86.0495 36.31 80.2445 36.31C67.2845 36.31 47.4395 58.99 45.4145 61.015ZM53.9195 85.99C53.9195 87.34 54.5945 88.15 56.2145 88.15C64.0445 88.15 77.9495 72.085 84.5645 57.91C84.1595 57.775 83.8895 57.775 83.4845 57.775C72.9545 57.775 53.9195 79.105 53.9195 85.99ZM146.604 69.25C146.739 69.115 147.009 68.98 147.414 68.98C148.629 68.98 150.249 70.465 150.249 71.41C150.249 71.68 150.249 71.815 150.114 71.95C147.819 74.245 129.324 101.38 117.309 101.38C110.424 101.38 106.104 96.79 106.104 88.69C106.104 76.135 131.079 46.3 131.079 41.575C131.079 41.17 130.809 40.9 130.404 40.9C127.164 40.9 123.654 41.17 120.414 41.305C109.884 56.695 97.3294 72.76 96.6544 72.76C95.4394 72.76 93.5494 70.6 93.5494 69.655C93.5494 69.925 105.429 54.805 114.204 41.44C107.724 41.44 102.729 40.225 102.729 34.96C102.729 27.4 115.014 15.655 119.604 15.655C124.869 15.655 129.864 19.435 129.864 23.35C129.864 25.375 127.974 29.29 125.004 34.15C127.299 34.015 129.729 33.88 132.564 33.88C139.584 33.88 144.714 39.28 144.714 44.005C144.714 52.24 121.359 84.235 121.359 91.12C121.359 92.065 121.764 92.47 122.574 92.47C126.489 92.47 144.714 71.14 146.604 69.25ZM115.959 33.07C115.959 33.88 117.039 34.15 118.794 34.285C121.629 29.56 123.384 25.645 123.384 23.755C123.384 23.35 123.249 23.215 122.979 23.215C121.629 23.215 115.959 31.045 115.959 33.07ZM214.192 69.25C214.327 69.115 214.597 68.98 214.867 68.98C216.082 68.98 217.837 70.33 217.837 71.41C217.837 71.005 197.452 101.38 184.762 101.38C177.877 101.38 173.422 95.98 173.422 88.69C173.422 86.395 174.502 83.02 176.122 79.105C167.347 90.715 157.627 101.38 151.957 101.38C144.127 101.38 139.402 96.79 139.402 88.69C139.402 76.945 162.757 33.88 180.172 33.88C188.272 33.88 194.482 38.2 197.182 42.25C202.042 35.23 202.582 33.88 205.147 33.88C209.062 33.88 215.272 37.795 215.272 40.63C215.272 41.035 215.002 41.44 214.732 41.845C208.927 47.65 188.812 83.02 188.812 90.985C188.812 91.93 189.217 92.47 189.892 92.47C193.807 92.47 212.167 71.14 214.192 69.25ZM153.982 89.635C153.982 91.39 154.657 92.47 156.142 92.47C160.867 92.47 182.602 63.04 190.837 52.105L191.107 51.7L191.512 50.89C191.647 50.755 191.782 50.62 191.782 50.485C191.782 47.11 190.162 42.385 187.192 42.385C176.932 42.385 153.982 79.105 153.982 89.635ZM264.274 34.555C264.274 33.61 264.814 33.205 265.759 33.205C268.999 33.205 276.154 38.335 276.154 44.41C276.154 54.94 240.244 101.245 220.939 101.245C213.109 101.245 207.034 96.655 207.034 88.555C207.034 76.81 228.094 41.44 234.979 34.555C235.519 34.015 236.329 33.745 237.274 33.745C241.054 33.745 247.399 37.795 247.399 40.495C247.399 39.415 222.694 77.35 222.694 89.23C222.694 91.12 223.504 92.335 225.124 92.335C234.439 92.335 264.274 46.705 264.274 34.555ZM260.919 61.015C260.784 61.15 260.514 61.285 260.244 61.285C259.029 61.285 257.274 59.8 257.274 58.72C257.274 59.935 277.389 28.885 298.449 28.885C312.084 28.885 317.889 37.795 317.889 47.245C317.889 64.39 292.644 96.115 275.499 96.115C266.724 96.115 261.054 89.635 261.054 83.425C261.054 67.765 286.569 49.81 299.529 49.81C300.879 49.81 301.959 49.945 302.904 50.35C303.579 48.19 303.849 46.165 303.849 44.275C303.849 39.55 301.554 36.31 295.749 36.31C282.789 36.31 262.944 58.99 260.919 61.015ZM269.424 85.99C269.424 87.34 270.099 88.15 271.719 88.15C279.549 88.15 293.454 72.085 300.069 57.91C299.664 57.775 299.394 57.775 298.989 57.775C288.459 57.775 269.424 79.105 269.424 85.99ZM386.544 14.71C388.839 14.71 389.784 15.925 389.784 17.545C389.784 21.73 383.574 29.155 378.174 29.155C374.799 29.155 363.864 28.075 351.984 27.265C337.944 47.92 320.934 78.7 320.934 93.82C320.934 99.355 323.229 102.865 329.034 102.865C330.114 102.865 330.519 103.135 330.519 103.675C330.519 104.755 327.279 106.915 323.094 106.915C316.344 106.915 306.354 103.675 306.354 89.095C306.354 78.025 323.634 48.19 337.539 26.185C332.004 25.915 323.229 26.59 323.229 24.295C323.229 19.975 326.064 21.055 341.859 19.435C352.254 3.1 354.549 0.129997 356.979 0.129997C360.894 0.129997 367.104 4.045 367.104 6.88C367.104 7.96 362.379 12.55 358.734 17.545C371.559 16.06 383.844 14.71 386.544 14.71ZM334.839 88.69C334.839 76.945 360.894 37.93 364.134 34.69C364.674 34.15 365.484 33.88 366.564 33.88C370.479 33.88 376.554 37.795 376.554 40.63C376.554 41.035 376.419 41.44 376.014 41.845C370.209 47.65 350.229 82.885 350.229 90.85C350.229 91.93 350.499 92.47 351.309 92.47C355.224 92.47 373.584 71.14 375.609 69.25C375.744 69.115 376.014 68.98 376.284 68.98C377.499 68.98 379.254 70.33 379.254 71.41C379.254 71.005 358.869 101.38 346.179 101.38C339.294 101.38 334.839 95.98 334.839 88.69ZM521.275 8.095C522.085 7.285 523.165 6.88 524.245 6.88C528.16 6.88 532.75 11.47 532.75 14.575C532.75 15.115 532.48 15.79 532.075 16.195C529.51 18.895 512.635 41.035 500.485 62.5C501.97 62.5 502.645 62.77 502.645 63.985C502.645 66.82 500.62 67.36 497.785 67.36C491.98 78.43 487.795 88.825 487.795 95.98C487.795 101.65 490.495 105.16 497.245 105.16C498.325 105.16 498.73 105.43 498.73 105.97C498.73 107.185 495.76 109.21 491.305 109.21C481.45 109.21 474.565 100.975 474.565 88.69C474.565 83.965 477.4 76.54 481.855 68.035C473.35 68.44 463.225 68.98 454.045 69.385C443.785 86.395 434.335 102.595 434.335 107.86C434.335 108.805 433.255 109.21 431.77 109.21C427.99 109.21 421.105 106.24 421.105 101.515C421.105 96.655 428.8 84.235 437.845 70.06C432.715 70.33 429.07 70.465 427.855 70.465C426.505 70.465 425.965 69.655 425.965 68.44C425.965 66.01 428.395 62.095 430.825 62.095H442.84C453.91 44.815 464.98 26.59 464.98 17.95C464.98 14.845 463.495 12.955 459.85 12.955C446.62 12.955 414.49 33.475 414.49 45.22C414.49 48.19 417.19 49.405 417.19 50.62C417.19 51.565 415.435 52.24 413.275 52.24C408.82 52.24 401.935 49.405 401.935 39.82C401.935 25.51 437.575 6.88 462.28 6.88C471.595 6.88 479.155 14.035 479.155 21.325C479.155 27.13 469.03 44.41 458.365 62.23C467.275 62.23 476.86 62.365 484.825 62.365C497.65 39.145 518.44 10.93 521.275 8.095ZM549.191 7.96C550.001 7.15 551.081 6.88 552.296 6.88C556.481 6.88 562.286 10.93 562.286 14.305C562.286 14.98 562.016 15.655 561.341 16.33C558.506 19.57 549.461 31.45 548.111 31.45C545.141 31.45 539.741 27.4 539.741 23.485C539.741 19.84 546.626 10.525 549.191 7.96ZM503.696 88.69C503.696 76.945 529.751 37.93 532.991 34.69C533.531 34.15 534.341 33.88 535.286 33.88C539.201 33.88 545.411 37.795 545.411 40.63C545.411 41.035 545.276 41.44 544.871 41.845C539.066 47.65 519.086 82.885 519.086 90.85C519.086 91.93 519.356 92.47 520.166 92.47C524.081 92.47 542.441 71.14 544.331 69.115C544.466 68.98 544.736 68.845 545.006 68.845C546.221 68.845 547.976 70.465 547.976 71.41C547.976 71.14 527.591 101.38 514.901 101.38C508.151 101.38 503.696 95.98 503.696 88.69ZM585.66 33.88C590.25 33.88 592.545 37.12 592.545 39.28C592.545 40.36 591.87 41.17 590.655 41.17C586.74 41.17 584.04 46.975 584.04 52.375C584.04 64.795 584.715 101.38 562.71 101.38C547.05 101.38 542.73 75.46 542.73 70.87C542.73 68.98 544.89 67.36 545.97 67.36H546.24L575.535 38.47C578.505 35.635 581.88 33.88 585.66 33.88ZM547.455 72.49C549.885 80.05 555.825 92.74 560.145 92.74C565.95 92.74 570.135 68.035 570.135 49.81L547.455 72.49ZM638.131 33.88C642.721 33.88 645.016 37.12 645.016 39.28C645.016 40.36 644.341 41.17 643.126 41.17C639.211 41.17 636.511 46.975 636.511 52.375C636.511 64.795 637.186 101.38 615.181 101.38C599.521 101.38 595.201 75.46 595.201 70.87C595.201 68.98 597.361 67.36 598.441 67.36H598.711L628.006 38.47C630.976 35.635 634.351 33.88 638.131 33.88ZM599.926 72.49C602.356 80.05 608.296 92.74 612.616 92.74C618.421 92.74 622.606 68.035 622.606 49.81L599.926 72.49ZM754.592 69.115C754.727 68.98 754.997 68.845 755.267 68.845C756.347 68.845 758.237 70.33 758.237 71.41C758.237 71.545 758.102 71.815 757.967 71.95C752.162 77.89 732.452 108.94 698.027 108.94C685.877 108.94 676.022 102.865 676.022 91.93C676.022 76.135 695.057 64.39 711.257 61.555C703.697 58.585 697.352 53.185 697.352 46.165C697.352 29.02 722.867 6.88 743.792 6.88C755.402 6.88 762.962 14.035 762.962 22C762.962 30.64 746.627 52.105 737.042 52.105C732.992 52.105 729.482 47.785 729.482 45.625C729.482 44.95 729.887 44.545 730.697 44.545C736.502 44.545 754.862 25.105 754.862 16.87C754.862 14.71 753.647 13.36 750.407 13.36C731.237 13.36 713.147 33.88 713.147 46.975C713.147 53.32 717.197 57.91 727.187 57.91C729.077 57.91 729.887 58.585 729.887 59.395C729.887 61.15 726.782 63.715 723.407 63.715C706.802 63.715 693.977 79.78 693.977 90.175C693.977 95.035 696.812 98.68 703.562 98.68C730.427 98.68 748.922 74.785 754.592 69.115ZM810.657 20.38C811.872 20.38 812.412 21.19 812.412 22.405C812.412 24.835 809.982 28.885 807.552 28.885C805.257 28.885 799.722 28.75 793.377 28.615C779.202 50.485 761.112 82.21 761.112 90.445C761.112 91.795 761.517 92.47 762.597 92.47C766.512 92.47 784.872 71.275 786.762 69.25C786.897 69.115 787.167 68.98 787.572 68.98C788.787 68.98 790.407 70.465 790.407 71.41C790.407 71.14 770.022 101.38 757.332 101.38C750.582 101.38 746.127 95.98 746.127 88.69C746.127 80.05 763.272 50.89 777.582 28.48C771.237 28.48 764.757 29.155 764.757 26.86C764.757 22.54 769.347 23.755 781.362 22.675C793.242 4.585 796.077 0.129997 798.642 0.129997C802.557 0.129997 808.767 4.045 808.767 6.88C808.767 7.69 803.502 13.63 798.237 21.19C803.907 20.785 808.632 20.38 810.657 20.38Z" fill="#F37624"/>
</svg>
